<?xml version="1.0" standalone="no"?>
<!DOCTYPE svg PUBLIC "-//W3C//DTD SVG 20010904//EN"
 "http://www.w3.org/TR/2001/REC-SVG-20010904/DTD/svg10.dtd">
<svg version="1.0" xmlns="http://www.w3.org/2000/svg"
 width="216.000000pt" height="216.000000pt" viewBox="0 0 216.000000 216.000000"
 preserveAspectRatio="xMidYMid meet">
<metadata>
Created by potrace 1.16, written by Peter Selinger 2001-2019
</metadata>
<g transform="translate(0.000000,216.000000) scale(0.100000,-0.100000)"
fill="#000000" stroke="none">
<path d="M1061 2118 c-26 -87 -64 -159 -92 -174 -23 -11 -93 -14 -379 -14
l-351 0 3 -632 3 -633 24 -70 c12 -38 38 -100 57 -138 107 -214 311 -376 548
-437 110 -28 302 -28 412 0 308 79 546 321 619 631 12 53 15 166 15 672 l0
607 -354 0 c-348 0 -354 0 -381 22 -29 22 -65 94 -85 167 -6 22 -14 41 -19 41
-4 0 -13 -19 -20 -42z m73 -145 c29 -57 30 -58 416 -63 l355 -5 -1 -590 c0
-672 1 -660 -88 -840 -81 -164 -208 -291 -371 -371 -127 -62 -223 -85 -365
-85 -142 0 -238 23 -365 85 -163 80 -290 207 -371 371 -89 180 -88 168 -88
840 l-1 590 355 5 c270 4 361 8 378 18 21 12 64 90 87 157 5 16 10 11 24 -30
10 -27 25 -64 35 -82z"/>
<path d="M1045 1973 c-11 -21 -35 -48 -54 -60 -34 -23 -37 -23 -372 -23 l-339
0 0 -415 0 -415 368 0 367 1 28 24 27 24 -2 450 -3 451 -20 -37z m-77 -236 c3
-15 -2 -17 -51 -11 -73 9 -93 -4 -113 -72 -14 -50 -14 -57 0 -72 10 -12 12
-22 5 -32 -5 -8 -7 -44 -4 -80 3 -36 2 -88 -3 -117 -5 -31 -5 -58 1 -68 7 -14
-1 -26 -39 -61 -83 -74 -156 -81 -233 -21 -38 29 -42 35 -39 71 2 31 -2 45
-23 68 -15 15 -30 43 -33 63 -4 19 -11 35 -16 35 -6 0 -10 5 -10 12 0 17 41
58 57 58 9 0 12 7 8 19 -7 23 17 44 47 39 16 -2 23 -10 23 -26 0 -15 12 -29
33 -42 35 -21 51 -48 35 -59 -5 -3 -14 -24 -21 -47 -6 -22 -21 -49 -32 -59
-20 -18 -20 -18 1 -51 11 -19 18 -38 14 -43 -3 -6 3 -15 14 -20 31 -17 76 -13
96 9 16 18 16 20 1 36 -12 12 -14 20 -6 29 7 9 7 21 0 39 -12 34 -13 108 0
161 6 26 5 44 -2 52 -14 18 -3 42 25 52 15 6 28 23 35 48 14 42 34 70 72 96
35 25 153 20 158 -6z"/>
<path d="M1090 1561 l0 -453 23 -27 22 -26 378 3 377 2 0 415 0 414 -349 3
c-337 3 -351 4 -378 24 -15 11 -38 38 -50 60 l-23 39 0 -454z m284 188 c52
-24 106 -80 134 -137 18 -38 18 -40 0 -51 -15 -9 -18 -24 -18 -82 0 -61 2 -70
17 -67 12 2 18 14 19 35 2 48 35 107 62 111 26 4 30 30 5 28 -10 0 -18 6 -18
14 0 8 8 14 17 14 10 -1 16 3 15 10 -1 6 5 11 13 11 8 0 14 -6 12 -13 -1 -6 4
-11 10 -10 7 2 13 -4 13 -12 0 -9 -7 -14 -17 -12 -29 5 -20 -18 11 -29 46 -16
71 -98 71 -236 l0 -111 -34 -6 c-41 -8 -88 -1 -221 30 -63 15 -130 24 -182 24
l-83 0 0 261 0 262 64 -6 c35 -3 85 -16 110 -28z m89 -533 c188 -40 235 -42
311 -11 13 6 17 4 14 -5 -6 -19 -65 -38 -118 -39 -25 -1 -110 13 -189 29 -159
33 -244 37 -296 16 -21 -9 -37 -11 -40 -5 -11 18 59 38 133 39 40 0 122 -11
185 -24z m0 -47 c149 -31 261 -36 310 -15 10 5 17 4 17 -2 0 -17 -67 -34 -134
-33 -34 0 -114 11 -177 25 -190 40 -237 42 -313 11 -14 -6 -17 -4 -14 6 6 17
70 37 122 38 21 1 106 -13 189 -30z"/>
<path d="M1220 1668 l0 -88 30 0 c26 0 30 4 30 28 0 41 -18 98 -40 124 l-19
23 -1 -87z"/>
<path d="M1305 1704 c19 -25 38 -58 41 -72 10 -49 13 -52 43 -52 28 0 29 1 21
36 -9 41 -29 65 -84 105 -55 41 -61 36 -21 -17z"/>
<path d="M1582 1433 c3 -36 5 -38 38 -38 33 0 35 2 38 38 l3 37 -41 0 -41 0 3
-37z"/>
</g>
</svg>
