<?xml version="1.0" standalone="no"?>
<!DOCTYPE svg PUBLIC "-//W3C//DTD SVG 20010904//EN"
 "http://www.w3.org/TR/2001/REC-SVG-20010904/DTD/svg10.dtd">
<svg version="1.0" xmlns="http://www.w3.org/2000/svg"
 width="1800.000000pt" height="900.000000pt" viewBox="0 0 1800.000000 900.000000"
 preserveAspectRatio="xMidYMid meet">
<metadata>
Created by potrace 1.16, written by Peter Selinger 2001-2019
</metadata>
<g transform="translate(0.000000,900.000000) scale(0.100000,-0.100000)"
fill="#000000" stroke="none">
<path d="M5577 6174 c-4 -4 -7 -25 -7 -46 0 -43 -24 -74 -66 -84 -25 -6 -26
-9 -22 -61 3 -32 11 -58 20 -66 12 -10 14 -24 9 -70 -4 -32 -5 -80 -2 -105 3
-26 4 -85 1 -132 l-5 -85 -30 -5 c-24 -4 -31 -11 -33 -34 -2 -17 -11 -30 -22
-33 -28 -7 -31 -42 -8 -86 20 -40 20 -42 4 -196 -31 -297 -46 -436 -56 -531
-6 -52 -13 -133 -16 -180 -3 -47 -10 -103 -16 -125 -6 -22 -11 -71 -11 -110
l1 -70 -7 67 c-3 37 -12 73 -20 80 -11 11 -13 9 -7 -14 6 -27 5 -26 -34 12
-23 22 -45 38 -51 35 -5 -4 -9 0 -9 8 0 35 -99 38 -124 5 -12 -16 -18 -19 -22
-10 -3 6 -19 12 -35 12 -17 0 -28 4 -25 9 3 5 -1 14 -9 21 -12 10 -15 9 -15
-4 0 -24 -14 -20 -50 14 -24 23 -42 30 -71 30 -21 0 -39 -4 -39 -10 0 -5 18
-10 40 -10 22 0 40 -3 40 -8 0 -10 -311 -9 -327 1 -7 5 -13 17 -13 28 0 14 7
19 25 19 14 0 25 -4 25 -8 0 -12 62 -32 98 -32 22 0 32 5 32 15 0 11 12 15 43
16 l42 1 -35 10 c-57 16 -130 21 -130 9 0 -17 -37 -13 -44 4 -4 11 -20 15 -55
15 -27 0 -53 5 -56 11 -10 15 -31 -20 -33 -55 -2 -25 1 -28 23 -24 14 3 25 1
25 -3 0 -5 -4 -9 -10 -9 -5 0 -10 -9 -10 -19 0 -21 -26 -36 -35 -21 -4 6 1 10
10 10 9 0 13 5 10 10 -4 6 -15 8 -25 5 -16 -5 -19 0 -22 32 -4 46 -34 64 -118
71 -30 3 -57 8 -60 12 -3 4 -23 12 -45 18 -35 10 -30 10 45 7 l85 -4 -82 11
c-46 5 -83 14 -83 19 0 5 -18 9 -40 9 -48 0 -56 -24 -10 -33 18 -4 30 -13 30
-22 0 -19 -9 -19 -24 -1 -14 18 -76 32 -76 17 0 -6 11 -11 23 -11 47 0 83 -72
40 -78 -22 -3 -33 -22 -13 -22 6 0 10 -4 10 -10 0 -5 -7 -10 -16 -10 -12 0
-15 7 -11 26 8 42 -21 61 -108 73 -42 6 -78 11 -81 11 -2 0 -4 6 -4 14 0 8 -6
17 -12 19 -9 4 -3 15 17 33 l30 28 3 -37 3 -37 52 0 c34 0 47 3 38 9 -24 15
-9 97 23 122 34 27 33 39 -4 39 -25 0 -30 4 -30 25 0 23 -3 25 -42 24 l-43 -2
40 -7 40 -7 -37 -2 c-35 -1 -38 -3 -38 -31 0 -28 -2 -30 -40 -30 -29 0 -40 -4
-40 -15 0 -11 -11 -15 -40 -15 -22 0 -40 -4 -40 -10 0 -5 -18 -10 -40 -10 -22
0 -40 5 -40 10 0 6 -18 10 -40 10 -22 0 -40 -4 -40 -10 0 -6 -33 -10 -80 -10
-47 0 -80 4 -80 10 0 6 -33 10 -80 10 -47 0 -80 -4 -80 -10 0 -5 18 -10 40
-10 29 0 40 -4 40 -15 0 -12 -16 -15 -80 -15 -64 0 -80 3 -80 15 0 8 -6 15
-14 15 -7 0 -19 6 -25 14 -9 11 -26 13 -67 9 -37 -4 -54 -2 -54 6 0 8 -67 11
-240 11 -168 0 -240 3 -240 11 0 8 -24 9 -80 4 -70 -6 -80 -5 -80 9 0 13 -11
16 -55 16 -30 0 -65 -6 -76 -12 -17 -10 -23 -10 -26 0 -3 6 -13 12 -23 12 -10
0 -20 9 -23 20 -4 17 -14 20 -61 20 -31 0 -56 -4 -56 -10 0 -5 -18 -10 -40
-10 -29 0 -40 4 -40 15 0 12 -16 15 -80 15 -64 0 -80 3 -80 15 0 12 17 15 97
15 139 0 108 10 -43 14 -141 4 -154 -1 -154 -52 0 -63 -13 -122 -26 -122 -8 0
-14 9 -14 19 0 11 -4 23 -10 26 -6 3 -10 48 -10 101 0 87 -1 94 -20 94 -19 0
-20 -7 -20 -90 0 -88 -1 -91 -26 -100 -37 -14 -54 2 -47 45 8 49 -3 80 -32 93
-15 7 -74 12 -140 12 l-115 0 0 -67 c0 -73 -17 -133 -37 -133 -14 0 -18 27
-14 106 l3 51 -47 12 c-26 6 -57 9 -68 6 -12 -2 -16 -2 -9 1 6 3 12 12 12 19
0 10 -31 13 -153 10 -83 -1 -160 -6 -169 -10 -9 -4 -19 -19 -23 -33 -3 -15
-13 -37 -23 -49 -15 -20 -29 -23 -144 -29 -114 -6 -128 -9 -128 -25 0 -28 -17
-31 -24 -4 -7 27 -46 36 -46 11 0 -10 -23 -16 -85 -21 -52 -4 -86 -11 -86 -18
-1 -7 -5 4 -9 23 l-7 35 -12 -25 c-11 -24 -11 -24 -7 7 4 21 0 38 -10 48 -22
22 -34 19 -34 -10 0 -25 -1 -25 -80 -25 l-80 0 0 -2340 0 -2340 8760 0 c7001
0 8760 3 8760 13 0 6 12 20 25 30 25 18 25 18 43 -12 l17 -31 198 0 197 0 0
79 0 79 -32 11 c-18 5 -48 13 -66 16 -18 4 -36 13 -39 21 -7 19 25 54 48 54
10 0 21 5 24 10 3 6 15 10 25 10 14 0 18 -5 13 -16 -4 -12 -2 -15 8 -12 12 4
14 188 17 1242 l2 1237 -55 -6 c-47 -6 -54 -5 -49 8 3 8 1 18 -5 22 -6 3 -11
17 -11 30 0 13 -5 25 -11 27 -6 2 -12 16 -11 31 0 20 -6 27 -20 27 -10 0 -21
7 -25 16 -3 8 -12 13 -19 10 -8 -3 -14 -1 -14 4 0 18 -2 25 -12 45 -11 18 -11
18 -20 -5 l-10 -25 -15 22 c-11 17 -25 23 -53 23 -46 0 -113 -27 -104 -41 3
-6 -1 -9 -10 -7 -9 2 -22 -8 -29 -22 -7 -14 -21 -27 -32 -29 -11 -2 -38 -21
-59 -42 -37 -36 -63 -47 -38 -16 7 8 9 16 6 20 -3 3 0 15 6 27 15 28 4 90 -15
90 -8 0 -15 4 -15 10 0 11 38 33 48 27 9 -6 28 14 28 28 -1 6 9 11 22 13 13 2
22 10 22 22 0 19 18 30 53 30 22 1 22 1 2 16 -18 13 -17 14 13 8 25 -5 32 -3
32 10 0 9 6 16 14 16 7 0 21 10 29 23 12 16 16 18 16 6 1 -9 10 -24 21 -34 10
-9 19 -20 18 -24 -4 -19 17 -41 38 -41 23 0 33 -14 17 -23 -5 -2 -1 -2 7 1 8
2 26 7 40 9 59 10 68 14 101 42 25 22 37 27 47 19 7 -6 10 -13 8 -16 -3 -2 2
-18 10 -34 8 -16 12 -32 9 -37 -2 -5 2 -11 10 -15 13 -5 15 66 15 589 0 585 0
594 -20 600 -11 3 -29 3 -40 0 -12 -4 -20 -2 -20 6 0 9 -4 8 -15 -1 -14 -12
-30 -11 -129 6 -29 5 -41 3 -47 -9 -6 -10 -35 -17 -102 -22 -99 -7 -147 -1
-147 20 0 20 -31 27 -55 11 -25 -16 -173 -19 -192 -4 -7 5 -47 9 -90 8 -95 -3
-252 6 -260 14 -3 3 -14 1 -24 -5 -13 -6 -25 -6 -39 1 -14 7 -20 7 -20 0 0 -5
5 -10 11 -10 5 0 7 -5 3 -11 -5 -8 -8 -8 -13 0 -5 7 -23 9 -47 6 -35 -4 -36
-4 -14 6 35 16 8 24 -32 10 -17 -6 -34 -11 -39 -11 -11 0 -4 48 11 65 7 8 8
15 3 15 -4 0 -8 20 -8 45 0 25 3 45 8 45 19 0 4 19 -23 29 -28 9 -32 8 -40
-15 -6 -14 -10 -43 -10 -65 0 -35 3 -39 25 -39 19 0 25 -5 25 -21 0 -18 -2
-19 -15 -9 -13 10 -18 11 -28 1 -9 -10 -8 -14 6 -22 20 -12 23 -39 3 -39 -7 0
-19 7 -26 15 -14 17 -70 19 -160 6 -39 -6 -66 -4 -95 6 -44 15 -117 12 -123
-5 -5 -17 -39 -15 -45 2 -3 8 -27 18 -53 22 l-47 7 24 19 c24 19 24 19 -71 12
-106 -7 -120 0 -20 11 87 9 88 15 4 15 -38 0 -86 3 -106 6 -24 4 -38 3 -38 -4
0 -6 12 -13 28 -15 22 -3 20 -4 -10 -6 -20 0 -41 -7 -45 -15 -11 -17 -53 -40
-53 -27 0 5 12 19 26 30 l27 21 -34 0 c-49 0 -79 -10 -79 -26 0 -8 -4 -14 -10
-14 -5 0 -10 6 -10 14 0 8 -8 16 -17 18 -10 3 19 8 65 12 45 5 82 12 82 17 0
5 -44 9 -99 9 -54 0 -125 3 -158 6 -55 6 -60 5 -65 -14 -8 -28 -83 -65 -115
-57 -15 3 -23 11 -20 19 8 19 -4 28 -19 15 -7 -5 -35 -11 -64 -11 -28 -1 -53
-4 -55 -7 -6 -10 -213 -5 -227 5 -17 13 -60 16 -53 3 4 -5 -14 -9 -39 -9 -25
0 -46 5 -46 10 0 6 -21 10 -47 10 -62 0 -93 9 -93 26 0 8 -4 14 -10 14 -5 0
-10 -7 -10 -16 0 -13 -7 -15 -37 -9 -72 15 -140 -2 -103 -25 13 -8 12 -10 -2
-10 -10 0 -18 6 -18 14 0 20 -149 34 -161 14 -7 -10 -9 -10 -9 2 0 8 -7 24
-15 34 -14 19 -15 18 -36 -7 -20 -26 -24 -27 -118 -27 -71 0 -102 4 -119 16
-19 13 -22 13 -22 0 0 -13 -5 -13 -40 -1 -22 8 -40 11 -40 6 0 -16 -70 -30
-103 -20 -18 5 -45 7 -60 3 -39 -8 -117 4 -114 18 1 6 -9 15 -23 19 -38 11
-100 10 -100 -1 0 -5 18 -10 40 -10 29 0 40 -4 40 -15 0 -11 -11 -15 -40 -15
-22 0 -40 5 -40 10 0 6 -18 10 -40 10 -22 0 -40 3 -40 8 0 4 -23 7 -50 7 -32
0 -54 5 -59 13 -6 10 -26 13 -69 10 -55 -3 -62 -1 -71 20 -13 27 -42 28 -66 2
-21 -24 -51 -26 -59 -5 -7 20 -26 19 -26 -2 0 -15 -2 -14 -14 3 -13 17 -26 19
-120 18 -85 -2 -106 1 -106 12 0 17 -28 18 -125 3 -42 -6 -128 -7 -213 -3
-125 6 -143 9 -139 23 3 14 -18 16 -222 13 -193 -2 -226 0 -233 13 -11 19 -28
19 -28 0 0 -12 -13 -15 -59 -15 -42 0 -62 -5 -72 -17 -13 -14 -39 -15 -259
-10 -153 4 -246 10 -248 17 -2 5 -34 10 -72 10 -61 0 -68 2 -75 23 -4 13 -8
17 -12 10 -7 -19 -83 -17 -83 2 0 11 -11 15 -40 15 -27 0 -40 -4 -40 -14 0
-10 -39 -13 -202 -12 -327 2 -366 -2 -415 -36 -23 -15 -48 -37 -56 -48 -11
-16 -16 -18 -25 -8 -16 20 -102 11 -102 -10 0 -13 -6 -11 -24 9 -18 19 -39 28
-77 33 -30 4 -56 12 -60 17 -8 14 -79 -29 -79 -47 0 -10 -12 -14 -40 -14 -22
0 -40 -5 -40 -11 0 -6 -5 -7 -12 -2 -22 14 -287 10 -293 -4 -2 -7 -16 -13 -30
-13 -14 0 -25 -4 -25 -9 0 -5 -22 -11 -50 -15 -27 -4 -56 -13 -64 -21 -18 -19
-21 -19 -40 1 -13 12 -46 17 -149 21 -72 2 -141 4 -152 3 -65 -6 -287 1 -344
11 -32 5 -61 16 -68 25 -10 13 -16 14 -26 6 -8 -7 -45 -11 -83 -11 -38 0 -95
0 -126 -1 -35 -1 -58 3 -58 9 0 6 -18 11 -40 11 -30 0 -40 -4 -40 -16 0 -11
-6 -14 -22 -8 -13 4 -26 11 -29 16 -3 5 -13 3 -22 -6 -14 -14 -20 -14 -57 -1
-49 17 -146 20 -155 5 -4 -6 -14 -10 -23 -8 -10 1 -27 -3 -39 -10 -12 -7 -29
-9 -37 -6 -9 3 -16 2 -16 -4 0 -7 -13 -6 -40 0 -37 10 -40 13 -40 47 l-1 36
-14 -25 c-14 -25 -14 -25 -15 -2 0 35 -20 26 -21 -10 0 -18 -7 -49 -14 -68
-13 -35 -13 -34 -14 38 -1 46 -5 71 -11 67 -5 -3 -10 -15 -10 -26 0 -10 -4
-19 -10 -19 -5 0 -10 -12 -10 -27 0 -37 -15 -61 -23 -38 -6 14 -9 14 -30 1
-31 -21 -133 -32 -151 -17 -17 14 -187 24 -366 22 -74 -1 -142 -2 -150 -2 -8
0 -36 3 -62 7 -34 5 -55 2 -79 -10 -21 -10 -58 -16 -105 -16 -40 0 -76 -4 -79
-10 -3 -5 -30 -10 -60 -10 -31 0 -55 -5 -57 -11 -6 -18 -78 -2 -78 16 0 8 -5
15 -12 15 -6 0 -22 10 -35 22 -20 19 -25 20 -33 8 -12 -19 -40 -4 -55 28 -13
29 -25 28 -25 -3 0 -22 -4 -25 -40 -25 -36 0 -40 3 -40 25 0 14 -2 25 -4 25
-3 0 -18 -14 -35 -31 -27 -26 -34 -29 -47 -18 -8 7 -13 21 -11 31 4 14 -1 18
-23 18 -23 0 -27 -4 -23 -19 3 -10 0 -21 -5 -25 -5 -3 -13 5 -16 19 -8 32 -56
37 -56 5 0 -11 -4 -20 -10 -20 -5 0 -10 9 -10 20 0 26 -3 25 -38 -10 l-30 -30
-44 20 c-27 12 -43 26 -43 37 0 14 -9 19 -44 21 -24 2 -49 -2 -54 -7 -6 -6
-15 -11 -19 -11 -4 0 -8 216 -8 481 l0 481 25 30 c31 37 34 83 5 91 -14 3 -20
14 -20 31 0 14 -6 26 -12 26 -33 1 -35 14 -27 140 11 147 22 233 38 278 32 92
32 89 -7 124 -33 29 -37 37 -37 82 0 45 -12 66 -28 50z m7396 -1972 c56 -4 69
-13 45 -29 -17 -10 -38 -49 -38 -67 0 -8 -8 -19 -17 -25 -12 -6 -18 -22 -19
-49 0 -35 4 -42 33 -57 18 -10 33 -25 33 -34 -1 -13 -3 -13 -15 3 -12 16 -17
17 -31 6 -14 -13 -14 -15 2 -27 9 -7 20 -10 25 -8 4 3 16 -6 27 -20 11 -14 27
-25 36 -25 8 0 41 -12 72 -26 31 -14 71 -28 88 -30 17 -2 54 -7 81 -10 28 -4
61 -6 74 -5 14 0 28 -4 32 -11 9 -14 88 -37 147 -43 66 -6 104 -16 120 -31 7
-8 18 -11 23 -8 6 3 19 -2 29 -11 14 -12 29 -16 50 -12 42 9 90 -2 90 -21 0
-12 9 -13 49 -8 44 6 51 4 61 -14 12 -22 40 -26 57 -9 8 8 21 8 47 -1 20 -6
39 -9 44 -6 5 3 22 1 38 -4 16 -4 23 -9 17 -9 -7 -1 -13 -4 -13 -8 0 -5 43 -8
95 -8 83 0 96 -2 109 -20 11 -16 27 -20 73 -21 32 -1 71 -5 87 -9 18 -5 36 -4
47 3 13 8 20 8 25 1 3 -6 17 -9 31 -6 18 3 30 -3 46 -24 22 -31 45 -37 66 -16
10 10 15 9 25 -5 14 -19 36 -24 36 -9 0 5 17 4 40 -1 22 -6 40 -14 40 -19 0
-5 21 -6 48 -4 26 2 51 4 55 5 5 0 5 5 2 10 -9 15 0 12 39 -11 20 -12 36 -27
36 -35 0 -8 9 -14 19 -14 11 0 23 -5 27 -11 3 -6 14 -9 24 -6 12 3 20 -2 23
-14 6 -22 47 -26 47 -5 0 28 21 28 46 0 17 -17 28 -23 33 -16 4 7 12 8 21 2 8
-6 32 -10 52 -10 20 0 48 -4 62 -10 14 -5 26 -6 26 -1 0 5 10 11 22 14 18 5
19 8 8 21 -10 13 -10 16 4 16 8 0 18 -11 22 -24 8 -33 52 -49 129 -48 44 1 67
-3 75 -13 7 -8 25 -15 41 -15 20 0 27 -4 23 -14 -6 -15 40 -37 90 -43 16 -1
34 -8 41 -13 7 -6 32 -7 59 -4 38 6 46 4 46 -9 0 -9 12 -18 30 -22 17 -4 30
-11 30 -16 0 -5 17 -17 38 -28 40 -20 84 -21 225 -5 51 5 57 8 52 25 -5 16 -1
19 27 20 18 1 37 1 41 0 4 -1 22 -3 39 -5 18 -2 34 -8 36 -15 2 -6 11 -11 19
-11 9 0 13 6 9 15 -4 10 5 22 27 35 40 25 77 26 83 2 3 -9 18 -25 35 -34 16
-9 29 -23 29 -31 0 -13 51 -57 66 -57 16 0 52 -43 47 -56 -8 -20 23 -17 39 4
7 9 25 23 40 31 15 8 25 17 23 22 -3 4 9 21 26 38 16 17 28 35 25 39 -5 9 43
36 50 29 2 -2 5 -12 7 -23 5 -35 57 -114 75 -114 9 0 27 -14 38 -31 18 -25 20
-34 10 -55 -6 -13 -16 -22 -23 -20 -6 3 -13 -4 -16 -15 -3 -11 -14 -19 -25
-19 -12 0 -24 -5 -27 -10 -4 -6 -11 -8 -16 -5 -5 4 -10 -6 -10 -22 l-1 -28 -8
30 c-7 29 -8 28 -9 -10 -1 -40 -2 -41 -36 -41 -19 0 -37 6 -39 13 -3 7 -12 13
-20 13 -7 0 -16 9 -19 20 -6 25 -24 26 -30 3 -3 -12 -5 -10 -6 7 -1 14 -6 32
-11 40 -9 13 -12 13 -25 -3 -7 -11 -11 -25 -8 -33 6 -16 -6 -18 -27 -4 -13 8
-13 11 -1 19 9 6 11 15 6 27 -5 11 -7 22 -7 27 3 12 -16 8 -21 -5 -3 -8 -9 -3
-16 12 -11 24 -61 39 -61 19 0 -5 -7 -9 -15 -9 -8 0 -15 -8 -15 -18 0 -21 -40
-50 -41 -30 0 7 -4 4 -9 -7 -4 -11 -6 -30 -3 -43 6 -27 -26 -70 -38 -51 -12
20 -29 -1 -29 -37 0 -29 -3 -34 -24 -34 -16 0 -27 -7 -31 -20 -3 -11 -15 -25
-26 -30 -10 -6 -19 -18 -19 -26 0 -8 -5 -12 -10 -9 -6 4 -17 1 -25 -5 -11 -9
-15 -9 -15 -1 0 7 -9 9 -25 5 -21 -5 -25 -3 -25 15 0 31 -66 61 -137 61 -48 0
-61 4 -84 26 l-27 26 -28 -25 c-20 -19 -25 -31 -22 -52 4 -21 1 -29 -12 -32
-18 -5 -21 -46 -6 -71 8 -14 0 -18 -49 -21 -38 -2 -39 -2 -20 13 19 15 19 17
3 29 -11 9 -14 18 -7 28 5 8 9 27 9 43 0 23 -3 27 -20 23 -12 -3 -20 0 -20 7
0 6 -9 28 -20 49 -11 20 -20 44 -20 52 0 13 -31 21 -62 16 -5 0 -8 4 -8 10 0
6 -9 9 -20 6 -12 -3 -23 1 -28 9 -7 12 -14 9 -40 -16 -18 -16 -32 -35 -32 -40
0 -6 -4 -10 -10 -10 -5 0 -10 6 -10 14 0 9 -7 12 -19 9 -13 -3 -17 -11 -14
-24 3 -10 0 -19 -6 -19 -6 0 -11 5 -11 10 0 6 -5 10 -11 10 -6 0 -9 -9 -6 -20
4 -15 -4 -24 -39 -41 -24 -11 -44 -25 -44 -30 0 -17 -29 -9 -40 11 -6 11 -18
20 -26 20 -26 0 -47 28 -40 55 5 19 3 23 -9 19 -8 -4 -15 -2 -15 3 0 5 9 9 21
10 18 2 19 -2 14 -28 -6 -28 -5 -30 13 -20 20 11 37 55 27 71 -3 5 -19 15 -35
23 -26 13 -29 13 -33 -2 -3 -11 -5 -9 -6 7 0 12 -5 22 -10 22 -5 0 -8 -8 -7
-17 1 -12 -5 -17 -17 -15 -15 3 -17 -1 -13 -16 4 -13 1 -22 -9 -26 -10 -4 -15
1 -15 14 0 11 -10 24 -21 31 -20 10 -21 9 -16 -10 3 -11 1 -24 -4 -27 -5 -3
-6 -10 -3 -16 4 -6 -3 -5 -16 2 -18 10 -24 9 -36 -7 -8 -10 -13 -13 -14 -5 0
6 -6 12 -14 12 -8 0 -17 6 -19 13 -4 7 -8 4 -12 -10 -4 -12 -13 -24 -21 -27
-7 -3 -22 -23 -33 -45 -11 -21 -33 -48 -48 -59 -52 -37 -313 -54 -313 -21 0 5
-8 9 -17 7 -15 -3 -19 7 -23 62 l-5 65 -9 -62 c-8 -62 -26 -88 -26 -38 0 14
-2 25 -4 25 -2 0 -11 3 -20 6 -20 8 -21 -13 -1 -32 20 -20 21 -61 2 -45 -8 6
-17 8 -20 4 -4 -3 -7 -1 -7 6 0 7 -4 9 -10 6 -5 -3 -10 1 -10 10 0 8 -11 20
-25 25 -14 5 -25 14 -25 19 0 6 -10 15 -21 22 -18 9 -30 7 -67 -11 l-45 -23
-18 24 c-10 13 -19 28 -19 33 0 4 -16 -4 -35 -18 -20 -15 -34 -21 -33 -14 2 8
-8 14 -26 16 -18 2 -26 0 -21 -7 3 -6 2 -11 -3 -11 -5 0 -7 23 -4 50 3 36 1
50 -8 50 -7 0 -10 -7 -6 -15 3 -9 0 -15 -10 -15 -10 0 -13 -6 -10 -18 4 -13
-3 -27 -24 -45 -16 -15 -30 -36 -30 -46 0 -14 -5 -18 -21 -14 -15 4 -22 0 -26
-16 -5 -18 -13 -21 -58 -21 -50 0 -53 1 -59 30 -6 35 -25 45 -62 36 -17 -5
-24 -12 -20 -21 3 -8 1 -17 -4 -20 -6 -4 -10 0 -10 7 -1 9 -5 7 -14 -4 -17
-23 -29 -23 -50 1 -14 16 -15 23 -4 45 10 23 9 29 -3 37 -33 21 -48 4 -64 -73
-5 -24 -9 -27 -43 -23 -20 1 -56 3 -80 4 -42 1 -42 1 -37 32 l6 32 -38 -7
c-68 -12 -78 -11 -76 2 2 6 -6 12 -17 12 -12 0 -20 -7 -20 -16 0 -31 -27 -45
-82 -42 l-53 3 3 40 c3 53 -5 85 -23 85 -9 0 -15 9 -15 24 0 19 -7 25 -36 31
-43 8 -45 6 -46 -34 -1 -17 -4 -31 -8 -31 -14 0 -32 -58 -25 -79 8 -26 1 -26
-41 0 -35 21 -43 46 -23 66 9 9 8 18 -3 35 -8 13 -18 35 -22 51 -7 31 -46 39
-46 9 0 -9 -9 -23 -21 -30 -17 -11 -20 -21 -17 -72 1 -32 0 -60 -2 -63 -3 -2
-146 3 -317 12 -289 14 -313 16 -313 33 0 10 -6 18 -14 18 -10 0 -12 11 -9 44
5 37 2 46 -16 58 -11 7 -21 23 -21 35 0 16 -6 23 -20 23 -14 0 -20 -7 -20 -23
0 -12 -9 -28 -20 -35 -15 -9 -20 -23 -20 -57 0 -43 -1 -44 -35 -51 -40 -7 -65
7 -65 37 0 11 -4 19 -10 19 -5 0 -7 6 -5 13 7 19 -11 41 -29 34 -11 -5 -16
-19 -16 -50 0 -25 -6 -49 -12 -54 -8 -6 -103 -4 -261 6 -196 13 -250 19 -257
31 -8 12 -14 13 -41 3 -26 -10 -70 -10 -204 -1 l-171 12 4 28 c5 32 -27 118
-44 118 -13 0 -24 -46 -24 -101 0 -58 -17 -47 -31 19 -17 79 -29 91 -74 69
-22 -10 -35 -24 -36 -37 -1 -11 -3 -24 -4 -30 -1 -5 -3 -18 -4 -29 -1 -24 -33
-30 -108 -20 -32 4 -150 13 -263 20 -113 6 -216 13 -230 14 -14 1 -39 3 -55 4
-26 1 -30 5 -31 31 -1 17 -10 40 -20 51 -10 11 -19 30 -19 42 0 13 -6 22 -15
22 -9 0 -15 -9 -14 -22 0 -13 -4 -23 -11 -23 -16 0 -46 -56 -39 -74 4 -11 0
-16 -13 -16 -18 0 -20 5 -15 50 3 37 0 55 -11 68 -8 9 -19 29 -22 45 -5 20
-13 27 -31 27 -23 0 -28 -9 -25 -37 1 -7 -7 -23 -19 -35 -24 -26 -26 -63 -5
-85 9 -8 14 -17 12 -19 -2 -2 -52 -1 -110 3 -84 5 -107 9 -107 21 0 9 -7 13
-20 9 -20 -5 -29 8 -10 15 12 4 -9 68 -22 68 -4 0 -8 11 -8 25 0 14 -6 25 -12
25 -9 0 -8 4 2 11 12 8 9 9 -12 5 -16 -4 -28 -2 -28 3 0 6 22 9 49 8 27 -1 44
-5 38 -9 -7 -4 7 -8 31 -8 26 0 41 4 37 10 -3 6 3 10 13 10 11 0 25 7 32 15 6
8 24 14 38 14 15 0 57 3 95 7 69 6 80 1 50 -22 -17 -12 -16 -13 5 -14 13 0 20
4 17 10 -3 6 1 13 9 16 9 3 13 11 10 16 -5 7 12 8 50 4 l57 -8 -3 29 c-3 26 1
29 42 40 25 6 38 12 31 12 -11 1 -12 4 -3 13 8 8 15 8 24 1 7 -6 37 -13 66
-17 29 -4 60 -9 70 -13 12 -4 14 -3 7 5 -5 5 -19 12 -30 15 -11 3 4 4 34 4 33
-1 55 2 58 10 3 8 -14 10 -56 9 -44 -2 -58 0 -54 10 5 13 97 12 141 -1 14 -5
22 -3 22 4 0 6 11 11 25 11 18 0 25 5 25 19 0 29 46 33 78 7 15 -12 46 -28 70
-36 23 -7 42 -18 42 -24 0 -6 10 -12 23 -12 12 -1 42 -3 66 -5 36 -3 47 1 63
21 18 22 19 34 13 116 -6 93 1 118 28 95 8 -6 49 -9 98 -7 81 3 85 2 106 -24
18 -22 23 -42 25 -97 1 -38 -2 -75 -6 -81 -4 -7 -1 -15 8 -18 9 -3 16 -12 16
-20 0 -8 9 -14 19 -14 11 0 23 -4 26 -10 3 -5 19 -10 34 -10 16 0 42 -7 57
-15 28 -15 28 -15 -24 -10 -61 7 -64 -9 -4 -19 21 -3 63 -13 93 -22 30 -9 61
-18 69 -21 12 -3 12 -5 0 -13 -11 -7 -7 -10 13 -16 16 -3 31 -4 34 0 9 9 -37
46 -59 46 -10 0 -18 5 -18 10 0 6 7 10 15 10 23 0 75 -29 75 -41 0 -7 11 -9
25 -7 14 3 25 1 25 -5 0 -5 14 -7 30 -5 20 3 30 0 30 -9 0 -17 53 -30 58 -15
2 7 11 12 19 12 12 0 13 3 4 13 -16 20 24 56 41 39 9 -9 7 -12 -11 -12 -31 0
-18 -16 20 -24 21 -4 35 -1 45 9 18 18 10 35 -17 35 -11 0 -18 4 -15 9 7 10
78 -8 131 -34 43 -21 75 -21 87 0 4 7 29 18 55 25 76 19 81 22 53 30 -22 6
-21 7 17 14 23 4 47 14 54 22 6 8 18 14 25 14 8 0 14 7 14 15 0 8 5 15 10 15
6 0 10 11 10 25 0 17 4 23 15 19 8 -4 13 -10 10 -15 -13 -20 103 -66 133 -53
14 6 11 9 -13 14 l-30 8 33 1 c27 1 35 7 48 39 9 20 20 44 24 52 4 9 24 16 51
18 24 2 51 9 59 16 8 7 23 16 33 19 18 7 23 42 7 52 -18 11 -10 25 15 25 14 0
29 8 36 21 8 17 17 20 40 15 39 -7 63 2 49 19 -8 10 -7 16 6 23 11 6 17 23 18
51 0 25 6 41 14 41 6 0 12 5 12 11 0 6 10 19 22 29 21 17 21 19 6 57 -14 37
-14 42 3 64 18 24 26 89 11 89 -5 0 -18 23 -30 50 -21 48 -29 55 -61 50 -10
-1 -12 6 -7 24 5 21 3 26 -13 26 -14 0 -18 5 -14 20 3 11 9 20 14 20 5 0 9 9
9 20 0 11 -4 20 -10 20 -5 0 -10 6 -10 14 0 13 -56 20 -137 17 -41 -1 -51 16
-24 43 20 19 32 21 145 21 69 0 128 4 132 8 4 4 15 5 23 1 9 -4 42 -9 74 -12z
m-1163 -17 c9 -5 15 -4 18 3 5 15 22 16 22 2 0 -5 -9 -19 -20 -30 -24 -24 -26
-40 -5 -40 28 0 15 -27 -26 -55 -22 -16 -45 -37 -50 -47 -13 -24 -29 -23 -29
2 0 15 -9 21 -41 26 -40 7 -41 8 -36 40 7 40 -15 47 -34 12 l-12 -22 -9 24 -9
24 -15 -29 c-8 -16 -12 -35 -10 -42 4 -8 -3 -13 -18 -13 -13 0 -29 -6 -35 -14
-7 -8 -28 -17 -47 -21 -24 -4 -38 -13 -41 -26 -5 -17 -11 -19 -37 -13 -40 8
-42 10 -26 29 10 12 10 19 2 27 -8 8 -13 7 -18 -6 -6 -16 -7 -16 -19 0 -7 10
-17 14 -24 10 -9 -6 -9 -11 -1 -21 8 -10 6 -15 -9 -20 -12 -3 -21 -11 -21 -16
0 -5 -20 -9 -44 -9 -36 0 -50 6 -74 30 -17 17 -41 30 -55 30 -32 0 -57 28 -36
41 8 5 20 9 27 9 6 0 12 7 12 15 0 8 11 17 25 21 14 3 25 10 25 15 0 5 6 9 14
9 7 0 19 7 26 15 9 11 17 12 30 5 23 -12 77 -13 84 -1 13 20 306 36 306 16 0
-5 5 -2 11 8 8 13 20 18 44 15 19 -1 37 1 41 5 10 10 96 3 114 -8z m-10935
-470 c202 -4 235 -6 235 -15 0 -5 -12 -10 -27 -11 l-28 -1 30 -9 c19 -5 31 -5
33 1 2 6 8 10 13 10 6 0 7 -5 3 -11 -5 -9 1 -10 20 -5 30 7 32 4 11 -18 -14
-13 -11 -14 21 -9 26 4 35 3 30 -5 -11 -18 16 -26 29 -9 15 21 25 22 25 2 0
-9 -10 -19 -23 -24 -29 -11 -550 -36 -572 -27 -13 4 -14 10 -5 26 6 11 8 20 4
20 -20 0 22 29 58 40 l43 14 -35 7 c-22 4 -27 7 -12 8 12 0 22 5 22 10 0 12
31 20 50 13 8 -3 42 -6 75 -7z m6825 -60 c41 -3 82 -5 89 -5 26 0 -3 -18 -34
-21 -77 -8 -522 14 -550 27 -26 11 1 12 195 8 124 -3 259 -7 300 -9z m-4441
-89 c6 -27 9 -51 6 -54 -2 -3 -43 -7 -90 -9 -74 -4 -86 -3 -91 12 -4 10 -2 27
5 37 7 12 8 17 2 13 -17 -10 -13 3 8 24 21 21 42 26 107 26 42 0 42 0 53 -49z
m4929 -52 c13 -9 35 -20 50 -24 15 -4 26 -12 25 -19 -2 -7 13 -11 40 -11 43
-1 87 -23 68 -35 -6 -3 -11 -15 -11 -25 0 -14 10 -20 40 -25 48 -8 68 -30 21
-23 -51 7 -34 -23 27 -50 l53 -23 19 23 c15 18 21 21 31 11 11 -11 10 -13 -4
-13 -23 0 -21 -22 3 -43 26 -22 33 -22 25 3 -6 19 10 30 17 12 2 -5 18 -12 37
-15 27 -6 32 -4 27 8 -4 11 1 15 19 15 41 0 125 -21 125 -31 0 -6 17 -8 44 -4
57 9 92 -1 75 -21 -8 -10 -9 -14 0 -14 6 0 14 6 17 14 3 8 17 17 31 21 36 9
83 -3 77 -19 -8 -22 27 -29 42 -9 11 15 16 16 33 6 29 -18 36 -16 20 4 -13 15
-11 16 10 10 13 -3 32 -1 42 6 10 6 22 8 26 4 4 -5 1 -12 -7 -17 -8 -5 -11
-12 -7 -17 5 -4 12 -1 17 7 7 11 17 12 47 4 21 -5 37 -15 36 -22 -4 -16 19
-15 43 3 25 19 72 19 117 0 25 -10 35 -20 31 -30 -9 -24 35 -39 71 -24 26 10
27 13 10 17 -10 2 -21 -1 -23 -7 -4 -13 -32 -15 -32 -2 0 5 6 12 13 14 7 3 5
6 -5 6 -10 1 -18 5 -18 10 0 4 29 1 64 -8 35 -9 62 -20 59 -25 -4 -5 6 -6 21
-2 15 4 26 2 26 -4 0 -6 10 -9 23 -7 12 2 7 -1 -10 -6 -38 -12 -41 -22 -14
-39 19 -12 19 -13 -7 -60 -15 -26 -30 -48 -33 -48 -3 0 -10 24 -15 53 -8 47
-12 52 -36 55 -27 3 -28 1 -29 -40 -2 -52 -7 -99 -12 -104 -2 -2 -82 0 -178 4
l-174 7 -1 55 c0 58 -17 110 -34 110 -5 0 -10 8 -10 18 0 9 -9 28 -20 42 -11
14 -18 18 -14 9 3 -10 1 -20 -5 -24 -13 -8 -15 -52 -2 -57 9 -3 14 -44 12
-110 -1 -33 -4 -38 -25 -38 -22 0 -23 3 -18 51 4 41 1 54 -12 61 -9 5 -16 21
-16 37 0 33 -17 43 -56 32 -19 -5 -30 -16 -34 -32 -4 -17 -13 -24 -30 -24 -21
0 -24 4 -21 25 1 14 8 28 15 33 15 10 -25 4 -42 -7 -7 -4 -10 -16 -7 -27 4
-13 2 -19 -8 -19 -19 0 -41 -53 -34 -86 l5 -25 -79 3 c-60 2 -79 0 -79 -10 0
-7 4 -10 10 -7 5 3 43 3 84 -1 l74 -7 12 -57 c15 -71 11 -95 -15 -94 -11 1
-46 2 -77 2 -32 1 -62 8 -69 15 -8 8 -33 11 -75 9 -35 -2 -64 0 -65 5 0 4 -2
26 -3 48 -4 51 33 105 73 106 25 0 25 1 4 9 -14 6 -26 24 -34 52 -18 68 -39
108 -54 108 -8 0 -15 -9 -15 -19 0 -11 -4 -22 -9 -25 -5 -3 -11 -16 -14 -28
-2 -13 -8 -32 -12 -43 l-8 -20 17 20 c17 20 17 20 10 -5 -8 -32 -6 -30 -31
-24 -18 5 -23 17 -30 67 -9 65 -27 84 -42 44 -6 -14 -15 -28 -20 -32 -6 -3
-11 -22 -11 -41 0 -19 -4 -34 -10 -34 -5 0 -10 8 -10 18 0 17 -13 19 -155 26
-138 6 -205 17 -205 35 0 9 -100 8 -101 -1 -1 -5 -3 -12 -4 -18 -1 -5 -3 -28
-4 -51 -1 -28 -5 -39 -13 -36 -9 2 -13 25 -13 67 0 36 -5 65 -11 67 -7 2 -10
-13 -9 -41 3 -58 -6 -72 -30 -46 -14 16 -16 29 -11 66 8 61 -18 157 -42 152
-10 -2 -18 -14 -20 -28 -7 -51 -24 -102 -31 -94 -13 14 -1 95 13 87 6 -4 5 1
-3 10 -21 26 -31 20 -31 -17 0 -39 -25 -55 -48 -32 -10 10 -13 25 -8 50 7 37
26 41 26 5 0 -10 5 -19 10 -19 25 0 7 47 -30 79 -35 31 -40 40 -40 78 0 37 -3
43 -25 49 -53 13 -21 19 80 16 108 -4 111 -3 106 36 -1 6 6 12 16 12 38 0 62
-13 71 -38 7 -21 15 -26 53 -29 24 -2 51 -3 59 -3 73 3 106 -2 118 -17 18 -24
31 -6 35 48 3 27 8 43 16 41 6 -1 14 5 17 13 8 19 14 19 42 -1z m-1978 -35
c27 -6 48 -14 45 -19 -3 -5 -1 -11 5 -15 5 -3 10 -1 10 4 0 6 6 11 14 11 8 0
17 7 20 15 4 12 15 15 43 10 73 -12 83 -15 83 -30 0 -8 5 -15 10 -15 6 0 10 4
10 10 0 5 10 8 23 6 20 -3 22 -9 25 -82 3 -92 -9 -124 -47 -124 l-26 0 24 -19
c29 -22 25 -53 -9 -62 -20 -6 -21 -7 -5 -8 18 -1 20 -7 17 -58 -2 -32 -3 -66
-3 -75 0 -11 -8 -18 -20 -18 -11 0 -18 -4 -14 -9 3 -5 -4 -12 -15 -16 -29 -9
-46 -43 -25 -51 23 -9 18 -34 -7 -34 -43 0 -152 21 -165 32 -7 6 -10 15 -6 21
4 6 -2 8 -16 4 -18 -4 -21 -2 -17 16 3 12 3 16 0 10 -4 -8 -11 -10 -22 -4 -23
11 -83 6 -92 -9 -5 -8 -17 -9 -41 -2 -19 5 -40 7 -46 5 -7 -3 -16 2 -19 11 -3
9 -10 14 -14 11 -5 -3 -11 -1 -15 5 -8 13 -7 13 62 -5 53 -14 59 -14 70 1 7 9
19 14 27 11 9 -4 18 -2 21 3 7 11 -43 16 -113 11 -30 -1 -44 2 -48 13 -3 9
-10 13 -15 10 -5 -3 -9 0 -9 5 0 14 27 14 35 0 8 -13 30 -6 30 9 0 7 3 12 8
12 4 0 15 0 24 0 15 0 14 -2 -2 -14 -17 -13 -14 -13 25 -4 25 6 63 11 85 12
22 1 49 6 59 11 13 6 21 5 24 -3 2 -7 17 -12 33 -12 22 0 29 5 29 19 0 11 6
21 13 24 6 3 -7 2 -30 0 -29 -4 -43 -2 -43 6 0 6 9 11 19 11 36 0 29 15 -8 17
-20 0 -49 7 -66 14 l-30 13 50 6 50 6 -57 8 c-32 5 -58 11 -58 14 0 2 8 11 18
18 15 12 13 14 -23 15 -31 2 -34 3 -12 6 17 3 27 11 27 21 1 15 2 15 14 -1 9
-12 16 -14 21 -8 8 15 -27 59 -43 53 -6 -2 -12 1 -12 7 0 6 18 11 39 11 30 0
44 6 55 22 20 28 12 38 -27 39 -28 1 -29 2 -9 8 l24 6 -25 21 c-13 12 -30 24
-38 27 -11 4 -10 6 3 6 11 1 15 7 11 21 -6 24 10 26 87 9z m420 -65 c0 -8 5
-14 10 -14 6 0 9 3 9 8 -4 24 3 23 16 -2 21 -40 2 -134 -29 -146 -16 -7 -17
-9 -4 -9 21 -1 30 -15 22 -35 -7 -19 -46 -22 -43 -3 3 18 -11 47 -23 47 -6 0
-8 -6 -5 -14 7 -17 -15 -27 -34 -16 -11 8 -11 10 1 15 9 3 16 20 17 40 1 26
-2 32 -13 28 -9 -3 -14 1 -14 12 0 12 5 15 16 11 14 -5 15 -1 10 29 -6 30 -3
39 16 54 24 20 48 17 48 -5z m325 -70 c8 -16 15 -19 30 -13 17 6 17 8 3 8 -10
1 -18 6 -18 11 0 12 6 12 44 0 17 -5 44 -12 59 -15 20 -4 27 -10 23 -20 -3
-10 1 -15 13 -15 16 0 18 -7 16 -47 -3 -76 -4 -80 -17 -81 -7 0 -26 -5 -43
-11 l-30 -11 33 5 c72 10 92 -10 63 -63 -7 -13 -10 -26 -7 -30 3 -3 6 1 6 9 0
11 2 11 10 -1 16 -24 12 -30 -20 -30 -23 0 -28 3 -23 17 5 13 2 15 -12 10 -21
-9 -58 1 -50 13 3 5 -12 8 -32 8 -63 -2 -119 3 -104 9 11 4 11 7 0 13 -9 6
-13 44 -15 138 l-2 129 31 -6 c18 -4 36 -16 42 -27z m-399 -139 c4 -9 26 -17
56 -21 l50 -7 -7 -91 c-3 -50 -13 -122 -21 -161 -8 -38 -15 -79 -17 -89 -3
-27 -27 -33 -27 -7 0 12 -5 21 -11 21 -6 0 -9 -9 -6 -20 4 -15 -1 -22 -20 -26
-13 -4 -30 -1 -36 5 -8 8 -6 11 9 11 17 1 17 2 2 11 -20 11 -13 39 11 40 13 0
12 2 -3 8 -22 9 -30 42 -13 53 9 5 9 10 -1 20 -17 17 -15 28 6 28 15 1 15 2 1
13 -12 9 -15 27 -12 82 3 57 9 131 12 143 3 8 23 -1 27 -13z m456 -144 c25 -6
64 -19 85 -31 21 -11 45 -20 53 -21 10 0 11 -2 3 -6 -7 -2 -13 -9 -13 -14 0
-6 4 -8 9 -5 5 3 14 0 20 -8 8 -10 7 -21 -5 -45 -12 -24 -14 -45 -9 -74 3 -23
7 -50 8 -59 1 -10 5 -18 9 -18 4 0 8 -9 8 -19 0 -21 -10 -25 -127 -41 -46 -7
-83 -14 -83 -16 0 -5 182 5 203 12 13 4 17 -1 17 -25 0 -23 -5 -30 -22 -33
-27 -4 -115 7 -140 17 -10 4 -18 3 -18 -3 0 -16 87 -35 139 -30 47 5 49 4 40
-15 -8 -14 -18 -18 -40 -15 -29 5 -40 -6 -16 -16 6 -3 -5 -3 -27 1 -27 4 -41
2 -47 -8 -26 -41 14 -54 58 -19 14 11 35 20 47 20 18 -1 19 -2 6 -13 -8 -7
-15 -19 -15 -27 0 -17 -84 -35 -98 -21 -10 10 -97 -18 -97 -31 0 -4 15 -8 34
-8 19 0 38 -4 41 -10 3 -5 11 -10 16 -10 16 0 -1 21 -24 29 -15 6 -1 10 47 14
40 4 76 2 87 -4 11 -5 24 -7 29 -4 6 3 10 2 10 -4 0 -5 -15 -11 -32 -13 -20
-2 -32 -8 -30 -15 1 -7 -2 -13 -8 -13 -5 0 -10 5 -10 10 0 6 -12 10 -27 10
l-28 0 28 -19 c24 -15 26 -19 12 -25 -24 -9 -37 -7 -30 4 4 6 -2 7 -17 2 -13
-4 -61 -2 -108 4 -47 6 -77 12 -66 13 15 1 16 4 6 16 -7 8 -8 15 -4 15 5 0 15
14 23 31 13 30 14 30 69 23 40 -5 53 -4 48 5 -4 6 -14 11 -22 11 -8 0 -13 4
-10 9 3 5 15 7 26 4 11 -3 20 0 20 6 0 6 -10 12 -22 12 -23 2 -23 2 -1 6 34 7
38 33 5 33 -28 -1 -88 -29 -63 -30 8 0 12 -3 8 -6 -3 -3 -15 -3 -27 1 -20 6
-20 8 -5 25 13 14 13 19 3 24 -11 5 -11 7 0 12 9 4 10 9 2 19 -7 8 -7 16 -2
19 6 3 13 -1 16 -10 3 -8 11 -12 16 -9 7 4 0 16 -16 30 -14 12 -24 27 -20 33
9 15 15 122 6 122 -15 0 -5 50 10 51 10 0 11 2 3 6 -7 2 -13 11 -13 19 0 8 -7
25 -16 38 -8 14 -16 36 -18 50 -1 14 -6 29 -9 33 -25 25 7 26 115 4z m2451
-124 l27 -2 0 -80 0 -81 -87 8 c-49 4 -117 8 -153 10 l-65 3 -3 79 -3 79 128
-7 c70 -4 140 -8 156 -9z m457 -34 c4 -4 1 -146 -3 -149 -1 -1 -43 0 -94 3
l-91 6 -7 44 c-7 47 7 78 32 69 14 -6 55 23 48 34 -4 7 107 0 115 -7z m391
-23 l29 0 0 -80 c0 -88 0 -88 -69 -74 -31 7 -32 8 -31 58 2 80 10 108 27 102
8 -3 28 -6 44 -6z m292 -16 c65 -4 128 -7 140 -8 21 -1 22 -6 23 -80 l2 -79
-172 7 c-202 8 -242 15 -240 39 1 9 2 45 3 78 l1 61 63 -6 c34 -3 115 -9 180
-12z m790 -53 c36 -1 37 -2 37 -40 0 -22 -4 -43 -10 -46 -5 -3 -10 -22 -10
-40 l0 -34 -82 5 c-46 3 -89 7 -96 10 -9 3 -12 25 -11 78 l2 75 66 -3 c36 -2
83 -4 104 -5z m307 -31 c0 -5 5 -10 11 -10 5 0 7 5 4 10 -6 10 131 6 200 -5
11 -2 33 -4 48 -4 25 -1 27 -4 21 -23 -7 -26 -39 -60 -47 -51 -3 3 -3 11 0 19
3 8 0 21 -7 29 -18 22 -50 1 -50 -33 0 -16 -8 -32 -20 -40 -11 -7 -20 -18 -20
-26 0 -21 -28 -27 -69 -17 -20 6 -43 10 -51 9 -32 -2 -60 2 -58 10 0 4 -2 15
-7 26 -5 11 -3 21 5 26 9 5 11 20 7 43 -3 19 -3 38 0 41 10 10 33 7 33 -4z
m1109 -52 c70 -1 73 -2 31 -9 -31 -5 -20 -6 37 -3 44 3 84 1 87 -4 2 -4 -8 -6
-25 -4 -27 4 -34 -3 -30 -30 0 -5 -9 -8 -22 -8 -30 0 -65 -39 -46 -52 9 -5 5
-6 -13 -2 -16 3 -35 0 -50 -10 -28 -18 -85 -18 -92 0 -7 17 -44 12 -78 -10
-28 -18 -65 -15 -53 4 3 5 0 10 -7 11 -10 0 -10 2 1 6 11 5 11 7 0 15 -11 7
-11 11 -1 15 6 2 12 9 12 14 0 6 -4 7 -10 4 -5 -3 -10 1 -10 9 0 9 6 16 13 17
8 0 8 2 -2 6 -10 4 -8 9 10 20 l24 14 -24 -7 c-17 -4 -21 -3 -16 6 6 10 31 11
98 6 50 -3 124 -7 166 -8z m-6244 -114 c0 -17 -6 -24 -19 -24 -20 0 -20 0 0
-15 17 -13 17 -14 2 -15 -25 0 -22 -20 3 -20 11 0 17 -4 14 -10 -3 -5 -22 -10
-41 -10 -19 0 -33 -4 -30 -9 4 -5 0 -12 -6 -15 -7 -3 7 -4 32 -2 25 2 35 1 23
-1 -32 -6 -28 -19 7 -26 42 -9 39 -30 -2 -23 l-33 5 33 -11 c17 -6 32 -17 32
-26 0 -8 -6 -12 -14 -9 -10 4 -13 1 -10 -8 3 -7 13 -16 22 -20 13 -5 10 -10
-17 -21 -41 -17 -41 -17 -41 1 0 8 -6 15 -12 15 -7 0 -24 3 -38 5 -21 5 -22 4
-5 -4 17 -7 15 -10 -17 -16 -20 -4 -44 -3 -54 3 -16 9 -15 10 5 17 23 7 23 7
3 21 -17 11 -26 12 -46 2 -15 -6 -29 -8 -34 -3 -4 4 -1 10 6 12 6 3 10 9 6 14
-3 5 4 9 15 9 11 0 26 7 34 15 8 8 17 12 20 9 2 -3 5 8 5 23 0 15 5 29 11 31
9 3 9 8 1 17 -8 10 -4 14 17 19 16 4 36 9 47 13 12 3 16 1 12 -6 -4 -6 0 -11
8 -11 18 0 19 2 10 24 -3 9 -12 16 -20 16 -8 0 -14 5 -14 11 0 6 -6 9 -13 6
-18 -7 -38 6 -29 18 14 20 45 30 85 27 37 -3 42 -7 42 -28z m-325 -59 c0 -11
12 -14 47 -13 27 0 49 -4 51 -11 2 -6 10 -11 17 -11 19 0 6 -40 -14 -41 -11 0
-9 -3 7 -9 38 -16 25 -20 -50 -19 -108 2 -129 0 -142 -10 -6 -4 -32 -8 -58 -7
-50 2 -56 -2 -36 -22 17 -17 -3 -14 -26 3 -11 8 -35 15 -53 15 -18 0 -33 4
-33 9 0 5 30 9 68 9 37 0 85 3 107 6 22 2 57 5 79 5 30 1 37 4 32 16 -4 12 5
15 54 15 36 0 60 4 60 11 0 7 -22 9 -62 7 -44 -2 -63 1 -66 10 -3 9 4 11 25 7
23 -4 24 -4 8 4 -26 12 -58 14 -51 2 4 -5 -8 -13 -26 -16 -18 -4 -38 -11 -44
-16 -5 -4 -21 -5 -34 -2 -22 6 -23 7 -4 14 19 7 19 8 -1 8 -16 1 -17 3 -5 11
9 5 19 5 27 -1 7 -7 18 -7 30 -1 10 5 24 7 32 4 8 -3 11 0 7 7 -5 7 3 12 21
12 22 2 20 3 -12 9 l-40 7 43 2 c31 1 42 -3 42 -14z m596 -7 c1 -13 5 -35 8
-50 4 -19 2 -28 -6 -29 -7 0 -4 -4 7 -9 18 -8 18 -9 -5 -10 -22 0 -23 -2 -7
-11 22 -13 13 -29 -18 -29 -13 0 -26 -4 -30 -9 -9 -15 14 -24 29 -12 7 6 21 9
30 5 10 -4 16 -1 16 9 0 19 42 35 48 18 2 -6 16 -11 31 -11 15 0 33 -6 40 -12
10 -11 15 -10 25 4 10 13 29 17 99 17 48 -1 87 -5 87 -10 0 -5 -8 -9 -17 -9
-14 0 -15 -2 -5 -9 18 -11 -17 -21 -75 -21 -33 0 -41 -3 -37 -14 3 -8 15 -17
27 -19 12 -2 -2 -5 -30 -6 -49 -1 -53 -3 -53 -26 0 -14 -1 -28 -2 -32 -1 -5 6
-9 14 -11 12 -2 15 3 11 20 -3 15 -2 19 4 10 7 -9 22 -10 56 -3 26 4 47 5 47
1 0 -9 -34 -19 -70 -21 -17 -1 -19 -3 -7 -6 31 -8 19 -25 -13 -18 -19 4 -30 3
-30 -4 0 -6 12 -12 28 -12 15 -1 38 -4 52 -6 14 -3 37 -5 53 -5 15 -1 27 -5
27 -9 0 -5 14 -6 30 -2 18 3 30 1 30 -5 0 -6 10 -14 22 -18 12 -3 29 -14 38
-22 14 -14 13 -15 -5 -8 -11 4 -42 12 -70 18 -27 6 -63 17 -79 25 -24 12 -37
13 -67 4 -21 -6 -41 -11 -46 -9 -4 1 -28 -2 -53 -5 -82 -13 -140 -15 -146 -6
-3 5 3 9 13 10 12 0 9 4 -9 11 -16 5 -28 14 -28 19 0 12 2 12 38 -6 24 -12 48
-14 114 -9 72 7 79 9 50 16 -18 5 -30 13 -27 18 3 5 1 11 -5 15 -5 3 -10 -1
-10 -9 0 -9 -8 -17 -17 -17 -10 -1 -34 -3 -53 -5 -19 -1 -40 2 -47 8 -20 16
-58 6 -55 -16 3 -15 -1 -17 -22 -12 -13 3 -28 2 -31 -4 -4 -6 9 -10 32 -10 24
0 33 -3 25 -9 -9 -5 1 -12 32 -21 24 -7 49 -9 54 -6 5 3 15 -1 22 -9 16 -19
-8 -30 -45 -21 -34 9 -32 -10 3 -22 l27 -10 -35 -2 -35 -2 40 -13 c42 -14 40
-17 -10 -17 -23 0 -25 -1 -7 -5 12 -2 20 -9 17 -14 -4 -5 -2 -9 4 -9 5 0 13 5
16 10 3 6 19 10 36 10 16 0 29 -4 29 -10 0 -5 -15 -10 -32 -10 -24 0 -29 -3
-18 -10 24 -15 5 -22 -26 -9 -16 6 -60 12 -99 14 -64 3 -68 3 -45 -10 16 -9
19 -14 10 -15 -9 0 -21 5 -26 10 -11 11 -69 14 -129 6 -24 -3 -35 -2 -26 3 26
16 1 33 -38 26 -20 -4 -54 -7 -76 -7 l-40 1 33 -12 c18 -7 30 -16 26 -20 -4
-4 -1 -7 7 -7 8 0 20 -9 27 -21 8 -13 19 -18 29 -15 13 5 13 4 4 -7 -9 -11 -8
-17 4 -27 12 -10 15 -10 15 3 0 10 13 17 38 22 47 8 78 25 45 25 -12 0 -25 5
-28 10 -4 6 10 10 34 10 28 0 46 -6 61 -22 14 -15 20 -18 20 -7 0 11 2 11 9 1
5 -9 25 -12 57 -11 27 1 57 -1 67 -5 11 -5 17 -4 17 4 0 7 8 9 20 5 11 -4 20
-2 20 4 0 7 24 11 60 11 33 0 60 4 60 10 0 6 -13 10 -30 10 -16 0 -30 4 -30 9
0 5 26 8 58 6 31 -2 72 -3 90 -4 21 -1 31 -5 27 -12 -4 -6 -14 -8 -22 -5 -9 4
-22 1 -29 -5 -10 -8 -14 -8 -14 0 0 6 -7 11 -15 11 -21 0 -19 -16 3 -25 31
-12 -14 -27 -59 -20 -51 9 -52 -10 -1 -20 51 -10 133 -10 159 -1 16 6 24 3 32
-11 9 -18 6 -20 -52 -21 -33 -1 -75 3 -92 9 -23 9 -46 9 -81 2 -43 -9 -45 -11
-16 -12 20 -1 31 -5 27 -11 -4 -6 -11 -8 -16 -5 -5 4 -9 1 -9 -4 0 -6 13 -11
29 -11 17 0 33 -5 37 -11 3 -6 19 -9 35 -5 16 3 29 1 29 -4 0 -6 -9 -10 -20
-10 -11 0 -20 -4 -20 -8 0 -4 16 -6 35 -4 19 2 35 8 35 13 0 5 10 14 23 19 21
8 21 9 -5 9 -15 1 -30 6 -34 13 -7 11 18 9 103 -8 30 -6 32 -5 27 20 -3 18 0
26 10 26 19 0 33 -23 18 -28 -7 -2 -12 -7 -12 -10 0 -10 78 -13 84 -3 3 4 -6
6 -19 3 -15 -2 -25 0 -25 7 0 6 7 11 15 11 8 0 15 6 15 14 0 17 5 21 43 30 22
5 27 3 27 -12 0 -11 10 -24 23 -30 21 -10 21 -11 -8 -11 -25 -1 -31 -6 -32
-23 0 -13 1 -17 4 -10 3 6 17 12 31 12 l27 -1 -24 -13 c-18 -10 -20 -15 -10
-19 8 -3 5 -6 -9 -6 -27 -1 -20 -21 8 -21 10 0 22 -5 25 -10 5 -7 -10 -10 -42
-7 -26 3 -38 2 -25 0 27 -5 27 -11 5 -36 -17 -19 -17 -19 29 -12 29 4 53 3 65
-4 13 -8 14 -11 3 -10 -48 4 -110 -2 -105 -11 4 -6 11 -8 16 -5 5 4 9 1 9 -4
0 -6 -7 -11 -15 -11 -17 0 -20 -16 -6 -25 6 -3 28 -1 50 4 23 5 41 5 41 0 0
-12 -64 -27 -94 -22 -14 3 -26 1 -26 -4 0 -6 -27 -16 -60 -23 -33 -7 -60 -17
-60 -22 0 -5 5 -6 11 -2 17 10 120 14 114 3 -4 -5 -17 -9 -31 -9 -13 0 -29 -9
-36 -20 -13 -20 -38 -28 -38 -11 0 13 -100 18 -101 6 0 -5 -3 -4 -6 3 -6 14
-49 16 -58 2 -3 -5 -1 -10 5 -10 6 0 17 -6 24 -13 11 -11 7 -15 -21 -24 -28
-8 -33 -8 -29 3 4 11 -6 14 -43 14 -28 0 -51 -5 -53 -11 -3 -8 -11 -8 -27 2
-19 11 -25 11 -28 2 -3 -7 -13 -13 -23 -13 -10 0 -22 -5 -25 -11 -4 -6 -13 -8
-21 -5 -8 3 -14 1 -14 -3 0 -13 30 -22 51 -16 9 3 21 0 25 -6 5 -8 2 -10 -8
-7 -8 4 -21 2 -29 -3 -11 -7 -9 -9 9 -9 12 0 31 6 42 12 15 10 22 10 32 0 9
-9 7 -12 -10 -12 -13 0 -22 -6 -22 -15 0 -8 9 -15 20 -15 11 0 20 -4 20 -10 0
-16 -17 -12 -73 20 -36 20 -68 30 -98 31 -33 0 -39 2 -24 9 18 7 18 8 -7 15
-15 4 -33 14 -40 23 -11 14 -10 15 7 8 23 -9 23 -9 52 -7 16 1 21 6 17 16 -4
9 0 15 7 16 8 0 28 2 44 2 17 1 36 6 43 10 7 5 12 3 13 -5 0 -7 3 -8 5 -3 4
11 85 12 102 1 5 -3 13 1 16 10 4 10 13 13 26 9 11 -4 20 -2 20 4 0 6 -16 11
-36 11 -23 0 -33 4 -28 11 4 7 0 9 -12 5 -49 -14 -157 -28 -239 -30 -107 -3
-167 -14 -162 -30 2 -6 19 -12 38 -14 40 -4 58 -16 26 -18 -12 -1 -32 -5 -44
-9 -19 -6 -23 -4 -23 14 0 14 -6 21 -20 21 -13 0 -20 -7 -20 -19 0 -26 -43
-54 -56 -36 -7 10 -14 9 -34 -1 l-25 -14 33 0 c18 0 32 -5 33 -12 0 -10 2 -10
6 0 4 10 8 10 19 1 13 -11 15 -10 13 9 0 11 40 18 80 13 l36 -4 -35 -14 -35
-13 48 5 c30 3 46 1 42 -5 -3 -6 -16 -10 -27 -10 -37 0 -13 -10 33 -14 24 -2
55 -8 69 -14 l25 -9 -23 -7 c-14 -5 -29 -3 -37 4 -9 8 -33 10 -67 6 -29 -3
-45 -2 -35 2 17 7 17 10 4 20 -12 10 -16 9 -21 -4 -4 -11 -15 -15 -35 -12 -22
3 -28 1 -23 -10 4 -12 1 -12 -15 -4 -11 6 -22 10 -24 8 -10 -9 -60 -16 -55 -8
8 14 -72 34 -105 27 -15 -4 -27 -11 -26 -18 1 -7 -18 -11 -50 -12 -29 -1 -53
2 -53 6 0 4 -8 10 -17 12 -11 3 -5 5 12 6 29 2 29 2 8 14 -19 10 -11 12 50 11
40 0 80 5 90 11 14 10 1 12 -63 10 -56 -2 -80 1 -77 9 2 6 15 11 28 11 13 0
41 4 62 9 30 7 35 11 26 22 -6 8 -21 14 -33 14 -17 0 -18 -2 -6 -10 13 -8 13
-10 -2 -10 -9 0 -20 5 -23 10 -4 6 -15 8 -26 5 -21 -7 -27 10 -6 18 9 4 9 6
-1 6 -8 1 -16 -8 -19 -19 -5 -19 -6 -19 -45 1 -29 15 -50 19 -74 15 -20 -4
-35 -2 -39 5 -5 8 -1 9 15 4 15 -5 20 -4 16 4 -4 6 0 11 8 11 9 0 16 5 16 11
0 5 -4 7 -10 4 -5 -3 -10 1 -10 11 0 11 -6 15 -19 11 -12 -3 -22 1 -25 9 -3 8
1 14 9 14 8 0 15 4 15 9 0 4 -18 7 -41 6 -30 -2 -39 1 -35 11 10 27 -5 44 -40
44 -21 0 -33 5 -31 12 1 6 -9 15 -23 19 -17 6 -11 7 20 4 43 -5 140 -8 168 -6
7 1 10 6 6 12 -3 6 -17 9 -30 6 -13 -2 -24 -1 -24 3 0 3 -15 6 -32 7 -87 1
-103 3 -88 13 8 5 26 10 40 10 53 0 -1 23 -87 36 -107 16 -113 16 -113 5 0
-12 98 -33 112 -25 7 5 8 2 3 -6 -4 -7 -2 -16 6 -21 26 -16 -31 -10 -64 7 -18
9 -40 21 -51 26 -10 5 -39 12 -65 15 -76 8 -71 23 8 27 52 3 85 16 38 16 -32
0 -47 20 -15 21 13 0 49 3 81 5 32 3 57 1 57 -4 0 -12 -59 -24 -74 -15 -6 4
-5 -1 3 -10 7 -9 24 -17 37 -17 12 0 26 -4 29 -10 3 -5 11 -10 18 -10 6 0 2 6
-9 14 -21 16 -19 20 14 30 15 5 24 3 28 -8 7 -18 74 -23 74 -6 0 7 17 9 45 6
39 -5 45 -3 45 13 0 23 46 41 92 36 31 -4 32 -3 14 10 -11 8 -17 18 -13 21 4
4 -1 13 -11 20 -15 12 -10 13 33 14 69 0 89 -15 33 -24 l-43 -7 40 -14 c27
-10 51 -11 77 -6 35 8 48 6 48 -9 0 -4 -27 -10 -60 -14 -33 -4 -60 -11 -60
-16 0 -6 -18 -10 -40 -10 -22 0 -40 -4 -40 -10 0 -13 55 -13 98 -1 20 6 30 6
27 0 -10 -15 22 -10 35 6 14 17 45 12 69 -12 11 -12 28 -14 68 -9 56 7 68 1
31 -14 -23 -9 -23 -9 2 -8 14 0 36 4 50 8 l25 8 -25 1 c-20 1 -22 3 -10 11 8
5 26 10 40 10 l25 0 -29 15 c-31 16 -57 18 -95 8 -23 -6 -23 -7 -5 -14 15 -6
11 -8 -15 -8 -27 -1 -32 2 -23 11 13 13 -12 37 -40 38 -31 0 -19 17 12 17 35
0 50 11 31 22 -18 12 -5 31 17 25 14 -5 15 -4 2 5 -14 10 -108 6 -119 -5 -2
-2 -9 3 -15 10 -15 19 -76 32 -76 16 0 -9 -11 -10 -37 -5 -44 8 -68 25 -35 25
12 0 22 3 22 8 0 4 14 13 31 21 27 12 32 11 52 -7 22 -20 97 -35 97 -20 0 4
-15 9 -32 9 -76 3 61 19 184 22 70 2 131 7 135 11 4 5 -5 6 -20 2 -19 -5 -33
-2 -44 9 -11 12 -30 16 -67 13 -53 -3 -74 12 -34 24 17 6 14 6 -9 3 -18 -2
-33 0 -33 5 0 6 18 10 40 10 31 0 38 3 33 15 -4 12 -21 16 -72 16 -113 0 -113
0 -107 15 3 8 -1 14 -9 14 -8 0 -15 5 -15 10 0 13 6 13 33 -1 22 -10 22 -10 2
6 -25 20 -59 16 -63 -7 -2 -13 3 -18 18 -18 12 0 19 -4 16 -8 -7 -12 -119 -2
-129 12 -6 7 -7 4 -3 -6 4 -14 0 -18 -22 -18 -21 0 -24 2 -12 10 12 8 11 10
-7 10 -12 0 -25 5 -28 10 -4 6 7 10 24 10 17 0 31 5 31 10 0 6 -8 10 -17 10
-10 0 -33 9 -51 20 -37 23 -42 24 -42 10 0 -5 12 -13 26 -16 19 -5 22 -9 12
-15 -7 -5 -13 -14 -13 -21 0 -7 -10 -13 -22 -13 -11 0 -25 -3 -29 -7 -12 -13
-24 -9 -18 6 3 8 15 17 27 21 20 6 20 8 4 12 -11 3 -16 11 -13 19 3 8 2 13 -3
10 -5 -3 -11 1 -15 9 -4 11 -11 13 -31 5 -14 -5 -35 -6 -47 -1 -21 7 -108 8
-133 1 -22 -6 -66 1 -60 10 3 5 20 9 38 8 18 0 42 2 55 6 12 4 22 3 22 -2 0
-9 33 -12 110 -10 14 0 40 0 58 1 39 1 40 7 5 30 -27 18 -27 18 -3 11 14 -4
34 -8 46 -8 11 -1 28 -7 36 -14 22 -17 107 -26 138 -14 l25 10 -33 8 c-18 3
-35 11 -38 15 -3 5 -34 9 -70 9 -38 0 -63 4 -59 9 3 5 28 8 55 5 54 -4 63 5
30 33 -29 26 -25 31 24 31 25 0 54 3 65 7 12 4 21 2 21 -4 0 -6 5 -11 10 -11
6 0 10 9 10 20 0 11 6 20 13 20 6 0 12 -11 12 -24 0 -29 -36 -40 -94 -31 -30
5 -33 4 -18 -5 11 -7 49 -10 98 -8 43 2 79 1 79 -4 0 -4 -18 -8 -41 -8 -24 0
-38 -4 -34 -10 4 -6 -7 -10 -24 -10 -39 0 -39 -11 0 -45 33 -27 52 -27 29 0
-11 13 -8 16 19 21 17 4 34 11 37 15 8 14 41 10 58 -6 16 -16 71 -11 61 6 -7
10 34 33 43 24 4 -3 1 -10 -7 -14 -10 -6 -9 -10 4 -15 29 -11 54 -7 63 10 7
13 13 14 28 6 18 -11 18 -11 -3 -12 -13 0 -22 -6 -20 -12 1 -7 -3 -12 -10 -11
-6 1 -17 -4 -23 -12 -11 -13 -7 -15 21 -16 19 0 28 -3 21 -6 -10 -4 -9 -8 5
-18 15 -11 10 -14 -42 -21 l-60 -7 35 -13 c43 -15 60 -17 40 -4 -9 6 -10 10
-3 10 6 0 15 -4 18 -10 3 -5 22 -10 41 -10 19 0 34 5 34 10 0 6 -4 10 -10 10
-21 0 -9 16 23 29 31 14 32 14 7 18 -28 5 -52 23 -31 23 11 0 11 3 1 15 -10
12 -9 16 4 21 9 3 16 13 16 21 0 10 6 13 16 9 9 -3 23 -6 32 -7 14 0 13 -2 -3
-9 -18 -8 -17 -9 6 -9 15 -1 40 6 55 14 23 12 25 15 10 15 -20 0 -20 0 0 15
19 14 19 14 -1 15 -20 1 -20 2 0 9 19 8 19 8 0 19 -20 11 -20 11 0 12 11 1 14
4 8 7 -17 6 -5 85 14 96 7 5 10 13 7 19 -4 6 -2 8 4 4 6 -3 13 -2 17 4 10 17
20 11 21 -12z m-1179 -312 c4 -3 17 -6 30 -6 20 0 27 -9 25 -32 -2 -11 27 -18
33 -8 4 6 1 10 -6 10 -8 0 -8 4 2 16 7 8 21 13 31 11 10 -3 18 -1 18 4 0 5 21
9 46 9 26 0 43 -4 39 -10 -3 -5 -19 -7 -34 -4 -32 7 -52 -13 -30 -27 20 -13
41 -11 33 2 -5 8 0 10 17 6 13 -3 43 -9 67 -13 62 -10 39 -23 -50 -29 -42 -3
-87 -9 -100 -14 -24 -9 -78 11 -78 29 0 6 -8 10 -17 11 -11 0 -13 3 -5 6 22 9
13 20 -15 19 -45 -1 -123 14 -123 25 0 10 106 6 117 -5z m1338 -732 c14 -14
20 -15 41 -3 16 8 28 9 32 4 4 -6 26 -11 50 -12 24 -2 52 -9 63 -16 18 -13 17
-15 -21 -21 -22 -3 -40 -11 -40 -17 0 -7 10 -9 28 -5 15 4 47 9 72 11 42 4 38
1 -19 -11 -22 -5 -22 -6 -6 -18 20 -15 29 -46 13 -46 -6 0 -8 6 -5 14 8 20
-47 15 -71 -7 -10 -9 -36 -18 -58 -18 l-39 -2 35 -6 c28 -5 31 -8 17 -14 -10
-4 -34 -7 -52 -7 -19 0 -36 -4 -39 -8 -7 -11 84 -13 119 -3 64 20 103 22 117
7 22 -22 70 -24 91 -3 19 19 52 23 62 7 3 -5 18 -10 32 -10 39 0 21 -11 -24
-14 -22 -2 -50 -9 -62 -15 -12 -7 -29 -10 -36 -7 -8 3 -15 0 -17 -5 -6 -19
-73 5 -70 24 2 11 -2 15 -13 11 -20 -8 -19 -13 7 -35 l21 -19 -26 0 c-15 0
-27 -3 -27 -7 0 -13 -47 -31 -60 -23 -8 5 -2 10 14 14 15 4 24 11 20 17 -3 6
-13 8 -21 4 -14 -5 -14 -3 -2 11 13 16 11 16 -26 9 -22 -5 -62 -9 -90 -9 -27
-1 -59 -6 -70 -13 -16 -9 -8 -11 45 -6 43 3 60 1 51 -5 -7 -5 -29 -8 -47 -7
-19 2 -32 -1 -29 -6 4 -5 13 -9 21 -9 8 0 14 -8 14 -17 0 -15 -2 -16 -10 -3
-8 13 -11 13 -22 -2 -14 -18 -78 -35 -78 -21 0 5 16 15 35 23 41 16 44 26 10
34 -14 4 -25 11 -25 16 0 6 -10 10 -22 10 l-23 0 22 -18 c14 -10 19 -22 15
-29 -6 -9 -12 -7 -25 7 -18 21 -52 27 -62 10 -3 -5 -30 -10 -60 -10 -30 0 -57
-4 -60 -10 -3 -5 -11 -10 -17 -10 -7 0 -7 4 1 13 8 11 6 13 -12 11 -12 -1 -39
-3 -59 -3 -27 -1 -38 -5 -38 -16 0 -8 5 -15 12 -15 6 0 9 -2 6 -5 -3 -3 -16
-1 -29 4 -13 5 -18 10 -11 10 6 1 12 6 12 12 0 6 -8 8 -20 4 -10 -3 -28 -1
-40 5 -13 7 -20 7 -20 1 0 -6 -6 -8 -14 -5 -8 3 -17 1 -21 -5 -4 -7 11 -11 42
-12 39 -1 43 -3 23 -9 -18 -6 -20 -8 -7 -9 10 -1 15 -6 12 -11 -4 -6 7 -13 24
-16 34 -7 40 -18 15 -28 -25 -9 -54 -7 -54 5 0 5 -8 9 -17 8 -24 -4 -73 9 -73
19 0 5 -34 9 -75 10 -76 2 -104 -13 -45 -24 16 -4 27 -10 24 -15 -3 -5 2 -9
10 -9 9 0 16 -4 16 -10 0 -5 -12 -10 -26 -10 -14 0 -23 4 -20 9 3 5 -2 11 -12
14 -9 2 -25 8 -34 12 -13 5 -15 2 -11 -14 3 -11 9 -18 14 -15 5 3 9 0 9 -5 0
-14 -97 -14 -105 -1 -3 6 -11 10 -16 10 -6 0 -7 -5 -3 -12 7 -11 1 -10 -51 6
-11 4 2 -4 28 -18 26 -13 51 -27 55 -31 8 -9 -32 2 -73 20 -33 14 -121 12
-118 -3 3 -11 -93 -9 -119 3 -13 5 -18 3 -18 -9 0 -9 7 -16 15 -16 8 0 15 -4
15 -10 0 -5 8 -10 17 -10 26 0 113 -42 107 -52 -3 -4 -9 -6 -14 -3 -5 3 -20 1
-33 -4 -14 -6 -37 -6 -52 -2 -26 6 -27 8 -11 24 17 16 15 17 -19 12 -19 -2
-33 0 -30 4 6 10 -18 33 -31 30 -14 -3 -46 13 -66 33 -17 17 -17 18 0 18 10 0
24 -6 31 -12 9 -9 12 -9 7 -1 -5 8 14 11 72 9 43 -1 89 1 102 4 23 5 22 7 -13
23 -35 17 -50 37 -27 37 6 0 10 -3 10 -8 0 -10 91 -3 116 10 15 7 28 7 43 -1
12 -7 26 -9 32 -5 6 4 16 0 21 -7 7 -11 11 -11 15 -1 2 6 20 12 38 12 18 0 41
3 50 6 14 6 14 8 -3 20 -23 16 -64 19 -107 9 -24 -5 -36 -2 -58 19 -16 14 -33
26 -40 27 -7 0 -1 5 12 10 16 6 28 6 35 -1 5 -5 18 -10 28 -10 10 0 18 -5 18
-11 0 -6 7 -9 15 -5 8 3 27 0 41 -6 20 -9 30 -9 45 1 11 6 29 9 40 6 11 -4 19
-2 19 4 0 11 -13 15 -37 12 -6 -1 -14 3 -18 9 -3 5 -16 10 -28 10 -18 0 -19 2
-7 10 12 8 9 10 -13 10 -31 0 -32 16 -3 43 19 17 19 17 -2 17 -12 0 -22 4 -22
9 0 10 73 23 92 16 14 -6 40 -54 30 -56 -4 -1 -27 -3 -51 -5 -24 -2 -46 -6
-48 -8 -2 -2 29 -7 69 -11 40 -5 65 -10 56 -12 -10 -3 -18 -9 -18 -14 0 -6 9
-7 21 -4 15 5 19 4 15 -4 -4 -6 0 -11 8 -11 9 0 16 -7 16 -15 0 -12 3 -12 18
3 13 12 14 18 5 20 -7 2 -13 7 -13 12 0 12 81 11 113 -2 21 -8 34 -8 52 2 13
7 31 10 39 7 9 -4 16 -2 16 3 0 5 -12 11 -27 13 l-28 4 27 2 c18 0 32 -6 40
-18 13 -21 38 -17 38 5 0 8 8 14 18 15 14 0 14 2 -3 9 l-20 9 20 1 c11 1 45 1
76 0 33 -1 60 3 64 10 11 17 -5 26 -16 10 -7 -10 -12 -11 -15 -4 -3 7 -14 9
-26 6 -14 -3 -19 -1 -14 6 4 7 17 12 29 12 17 0 19 2 7 10 -9 5 -19 5 -27 -2
-9 -7 -21 -7 -40 1 -16 6 -53 10 -85 8 -55 -2 -79 6 -64 21 14 13 227 6 236
-8 5 -9 19 -10 46 -6 29 6 34 10 23 17 -10 7 -3 8 21 3 37 -7 86 -9 135 -5
l30 3 -35 13 c-19 7 -29 14 -22 14 19 1 -7 27 -34 34 -14 3 -12 5 8 6 14 0 28
6 30 12 4 12 46 -6 60 -25 4 -6 16 -5 30 2 13 7 15 10 6 8 -10 -3 -20 -1 -23
4 -4 6 0 10 7 11 7 0 -13 8 -45 18 -32 9 -55 20 -51 24 13 12 42 8 59 -9z
m-1445 -353 c0 -3 20 -6 45 -7 32 -1 51 -7 65 -21 10 -12 24 -23 31 -25 26 -9
-4 -28 -43 -28 -35 0 -39 -2 -28 -15 7 -8 24 -15 39 -15 16 0 21 -3 14 -8 -9
-5 -1 -12 23 -21 19 -7 33 -15 30 -18 -3 -3 -33 -7 -67 -8 -41 -2 -58 0 -48 6
11 6 8 9 -11 9 -18 0 -21 3 -11 9 7 5 22 6 32 4 10 -3 19 0 19 6 0 6 -17 11
-40 11 -30 0 -40 4 -40 16 0 10 6 14 15 10 9 -3 15 0 15 8 0 15 -59 48 -72 40
-4 -3 -8 0 -8 5 0 6 -10 11 -22 12 -22 1 -22 1 2 8 15 4 28 3 33 -3 5 -6 7 0
4 16 -3 19 0 25 10 21 7 -3 13 -8 13 -12z m696 -119 c-7 -12 63 -44 76 -36 7
4 8 2 4 -4 -11 -18 8 -14 53 10 l41 22 25 -24 c14 -13 28 -20 32 -16 4 4 1 11
-7 16 -35 21 26 36 65 16 22 -11 23 -15 9 -20 -9 -4 -26 -4 -36 0 -16 5 -19 2
-16 -18 2 -15 11 -24 26 -26 40 -6 23 -20 -30 -24 -30 -3 -66 1 -83 8 -60 24
-90 31 -110 23 l-20 -8 20 0 c11 -1 27 -5 34 -10 10 -6 0 -8 -29 -4 -28 4 -41
3 -37 -4 4 -6 31 -9 62 -8 30 2 57 0 60 -5 9 -14 -104 -24 -130 -12 -15 7 -26
8 -30 2 -4 -6 3 -10 15 -10 13 0 20 -5 17 -12 -2 -7 5 -19 17 -26 19 -12 18
-13 -12 -8 -18 3 -40 13 -48 21 -9 8 -21 15 -27 15 -7 0 -3 7 7 15 11 8 14 15
7 15 -7 0 -9 5 -6 10 4 7 -2 9 -17 5 -13 -3 -36 0 -51 8 -26 13 -26 15 -7 20
21 5 45 3 90 -8 l25 -6 -25 12 -25 12 25 8 c22 7 21 8 -10 6 -19 -1 -35 3 -35
8 0 6 3 9 8 8 4 -2 7 4 7 12 0 8 6 12 14 9 8 -3 23 -1 33 5 22 13 26 13 19 3z"/>
<path d="M7115 1780 c-3 -5 1 -10 10 -10 9 0 23 -7 31 -15 9 -8 24 -15 35 -15
10 0 19 -4 19 -9 0 -5 -10 -7 -22 -4 -19 3 -18 1 5 -12 16 -9 26 -19 23 -22
-4 -4 -62 -11 -113 -13 -7 0 -13 -4 -13 -9 0 -6 15 -7 34 -4 19 3 36 1 40 -6
4 -7 -1 -11 -13 -11 -11 0 -22 -4 -25 -8 -2 -4 -17 -9 -33 -10 -24 -2 -29 2
-28 20 0 34 13 48 44 48 39 0 55 21 37 46 -12 15 -17 17 -27 7 -10 -10 -10
-13 -1 -13 24 0 11 -15 -14 -17 -15 0 -30 -6 -34 -13 -6 -10 -74 -21 -127 -21
-13 1 -23 -4 -23 -9 0 -6 10 -10 23 -10 18 0 19 -2 7 -10 -8 -5 -35 -10 -59
-10 -56 0 -49 -8 13 -15 31 -3 58 1 76 10 16 8 37 15 47 14 16 0 16 -1 -2 -9
-11 -5 -14 -9 -7 -9 7 -1 10 -5 7 -11 -4 -6 14 -10 47 -10 38 0 49 -3 38 -10
-11 -7 -8 -10 16 -10 39 0 49 9 26 26 -15 12 -14 13 15 14 17 0 38 7 47 15 10
11 24 13 42 9 23 -6 25 -4 20 14 -4 11 -2 23 4 27 6 4 7 12 0 24 -8 16 -6 17
15 13 17 -3 25 0 25 10 0 12 -14 14 -71 11 -52 -3 -78 1 -95 12 -27 18 -31 18
-39 5z"/>
<path d="M3949 5456 c-1 -3 -2 -11 -3 -16 0 -6 -8 -15 -16 -20 -11 -7 -8 -10
15 -11 17 0 24 -3 18 -6 -7 -2 -13 -14 -13 -24 0 -11 5 -17 10 -14 6 4 10 -5
10 -19 0 -21 -5 -26 -25 -26 l-25 0 0 -166 0 -165 36 -35 c20 -19 41 -34 45
-34 5 0 9 17 9 38 l0 38 60 -1 60 -1 0 43 c0 32 4 43 15 43 10 0 15 -10 16
-27 0 -16 3 -22 6 -15 2 6 20 12 39 12 24 0 34 5 34 15 0 9 -9 15 -25 15 -22
0 -25 4 -25 40 0 22 -4 40 -10 40 -5 0 -10 18 -10 40 0 22 5 40 10 40 6 0 10
18 10 41 0 24 4 38 10 34 6 -4 10 8 10 29 0 20 -5 36 -11 36 -6 0 -8 8 -5 18
4 12 -1 26 -14 37 -19 17 -20 17 -20 0 0 -16 -7 -17 -61 -11 -34 3 -73 6 -85
6 -14 0 -23 5 -21 12 1 7 -8 14 -20 16 -13 2 -24 1 -24 -2z"/>
<path d="M2560 4745 c0 -11 -11 -15 -40 -15 -36 0 -40 -2 -40 -25 l0 -25 139
0 139 0 6 25 c4 14 13 25 21 25 8 0 15 7 15 15 0 17 -32 20 -61 5 -13 -7 -19
-7 -19 0 0 6 -32 10 -80 10 -64 0 -80 -3 -80 -15z"/>
</g>
</svg>
